<?xml version="1.0" standalone="no"?>
<!DOCTYPE svg PUBLIC "-//W3C//DTD SVG 20010904//EN"
 "http://www.w3.org/TR/2001/REC-SVG-20010904/DTD/svg10.dtd">
<svg version="1.0" xmlns="http://www.w3.org/2000/svg"
 width="160.000000pt" height="65.000000pt" viewBox="0 0 160.000000 65.000000"
 preserveAspectRatio="xMidYMid meet">

<g transform="translate(0.000000,65.000000) scale(0.100000,-0.100000)"
fill="#000000" stroke="none">
<path d="M264 496 c-37 -16 -74 -61 -74 -89 0 -20 56 -80 119 -127 27 -20 32
-30 27 -48 -10 -29 -43 -36 -94 -19 l-42 15 0 -29 c0 -35 28 -49 96 -49 37 0
51 6 75 29 50 51 35 122 -34 157 -41 21 -77 54 -77 70 0 26 32 44 76 44 44 0
45 1 42 28 -3 24 -7 27 -43 29 -22 2 -54 -3 -71 -11z"/>
<path d="M427 435 c10 -74 10 -198 1 -246 l-6 -36 123 1 c113 1 124 3 129 20
3 11 3 23 1 27 -3 4 -43 4 -90 1 l-85 -5 0 57 0 56 75 0 c68 0 75 2 75 20 0
17 -8 19 -72 22 l-73 3 -3 43 c-4 47 -7 46 101 43 56 -2 57 -2 57 26 l0 28
-120 0 -120 0 7 -60z"/>
<path d="M705 490 c-4 -6 -4 -23 0 -38 8 -34 8 -232 -1 -266 l-6 -26 105 0
c100 0 105 1 111 22 8 31 -6 41 -38 28 -15 -5 -42 -10 -61 -10 -31 0 -34 3
-40 41 -4 23 -6 90 -4 148 l4 106 -32 3 c-17 2 -34 -2 -38 -8z"/>
<path d="M820 494 c0 -4 37 -82 82 -175 58 -120 85 -166 93 -159 19 16 67 109
105 205 l36 90 42 3 c25 2 42 -1 42 -8 0 -5 -31 -73 -70 -150 -38 -77 -70
-142 -70 -145 0 -11 68 -4 77 8 6 6 13 29 17 50 9 48 37 65 98 59 45 -4 48 -6
58 -40 5 -21 10 -47 10 -59 0 -20 5 -23 40 -23 22 0 40 4 40 9 0 4 -13 37 -29
72 -30 66 -71 191 -71 215 0 10 12 14 40 14 41 0 49 7 28 28 -14 14 -275 17
-295 4 -7 -5 -20 -33 -29 -63 -9 -30 -27 -80 -42 -112 l-26 -59 -24 48 c-42
83 -63 154 -51 175 9 18 6 19 -46 19 -30 0 -55 -3 -55 -6z m458 -111 c23 -58
20 -68 -20 -71 -44 -4 -48 7 -21 63 20 42 27 44 41 8z"/>
</g>
</svg>
